<svg width="67" height="15" viewBox="0 0 67 15" fill="none" xmlns="http://www.w3.org/2000/svg">
<path d="M12.8126 1.10298L7.55662 14H5.99062L0.734619 1.10298H2.12962C2.28562 1.10298 2.41162 1.14198 2.50762 1.21998C2.60362 1.29798 2.67562 1.39698 2.72362 1.51698L6.35962 10.616C6.43762 10.82 6.51262 11.042 6.58462 11.282C6.66262 11.522 6.73162 11.774 6.79162 12.038C6.85162 11.774 6.91462 11.522 6.98062 11.282C7.04662 11.042 7.11862 10.82 7.19662 10.616L10.8236 1.51698C10.8596 1.41498 10.9286 1.32198 11.0306 1.23798C11.1386 1.14798 11.2676 1.10298 11.4176 1.10298H12.8126Z" fill="#C2C2C2"/>
<path d="M22.4653 12.578L22.4563 14H14.5093V1.10298H22.4563V2.52498H16.2553V6.80899H21.2773V8.17699H16.2553V12.578H22.4653Z" fill="#C2C2C2"/>
<path d="M28.4709 7.34899C28.9749 7.34899 29.4189 7.28899 29.8029 7.16898C30.1929 7.04299 30.5169 6.86899 30.7749 6.64699C31.0389 6.41899 31.2369 6.14898 31.3689 5.83698C31.5009 5.52498 31.5669 5.17998 31.5669 4.80198C31.5669 4.03398 31.3149 3.45498 30.8109 3.06499C30.3069 2.67498 29.5509 2.47998 28.5429 2.47998H26.6349V7.34899H28.4709ZM34.4289 14H32.8809C32.5629 14 32.3289 13.877 32.1789 13.631L28.8309 9.02299C28.7289 8.87899 28.6179 8.77699 28.4979 8.71699C28.3839 8.65099 28.2039 8.61798 27.9579 8.61798H26.6349V14H24.8979V1.10298H28.5429C29.3589 1.10298 30.0639 1.18698 30.6579 1.35498C31.2519 1.51699 31.7409 1.75399 32.1249 2.06598C32.5149 2.37798 32.8029 2.75599 32.9889 3.19999C33.1749 3.63798 33.2679 4.12998 33.2679 4.67599C33.2679 5.13199 33.1959 5.55799 33.0519 5.95399C32.9079 6.34999 32.6979 6.70699 32.4219 7.02499C32.1519 7.33699 31.8189 7.60398 31.4229 7.82598C31.0329 8.04798 30.5889 8.21599 30.0909 8.32999C30.3129 8.45599 30.5049 8.63899 30.6669 8.87899L34.4289 14Z" fill="#C2C2C2"/>
<path d="M42.7801 3.11898C42.7261 3.20899 42.6661 3.27799 42.6001 3.32598C42.5401 3.36799 42.4651 3.38899 42.3751 3.38899C42.2731 3.38899 42.1531 3.33799 42.0151 3.23598C41.8771 3.13398 41.7031 3.02298 41.4931 2.90299C41.2891 2.77698 41.0401 2.66298 40.7461 2.56099C40.4581 2.45898 40.1071 2.40798 39.6931 2.40798C39.3031 2.40798 38.9581 2.46198 38.6581 2.56998C38.3641 2.67199 38.1151 2.81299 37.9111 2.99299C37.7131 3.17298 37.5631 3.38598 37.4611 3.63198C37.3591 3.87198 37.3081 4.13298 37.3081 4.41498C37.3081 4.77499 37.3951 5.07499 37.5691 5.31499C37.7491 5.54899 37.9831 5.74998 38.2711 5.91798C38.5651 6.08598 38.8951 6.23298 39.2611 6.35898C39.6331 6.47898 40.0111 6.60499 40.3951 6.73699C40.7851 6.86899 41.1631 7.01899 41.5291 7.18699C41.9011 7.34899 42.2311 7.55599 42.5191 7.80799C42.8131 8.05999 43.0471 8.36899 43.2211 8.73499C43.4011 9.10099 43.4911 9.55098 43.4911 10.085C43.4911 10.649 43.3951 11.18 43.2031 11.678C43.0111 12.17 42.7291 12.599 42.3571 12.965C41.9911 13.331 41.5381 13.619 40.9981 13.829C40.4641 14.039 39.8551 14.144 39.1711 14.144C38.3311 14.144 37.5691 13.994 36.8851 13.694C36.2011 13.388 35.6161 12.977 35.1301 12.461L35.6341 11.633C35.6821 11.567 35.7391 11.513 35.8051 11.471C35.8771 11.423 35.9551 11.399 36.0391 11.399C36.1171 11.399 36.2041 11.432 36.3001 11.498C36.4021 11.558 36.5161 11.636 36.6421 11.732C36.7681 11.828 36.9121 11.933 37.0741 12.047C37.2361 12.161 37.4191 12.266 37.6231 12.362C37.8331 12.458 38.0701 12.539 38.3341 12.605C38.5981 12.665 38.8951 12.695 39.2251 12.695C39.6391 12.695 40.0081 12.638 40.3321 12.524C40.6561 12.41 40.9291 12.251 41.1511 12.047C41.3791 11.837 41.5531 11.588 41.6731 11.3C41.7931 11.012 41.8531 10.691 41.8531 10.337C41.8531 9.94699 41.7631 9.62898 41.5831 9.38299C41.4091 9.13099 41.1781 8.92099 40.8901 8.75299C40.6021 8.58499 40.2721 8.44399 39.9001 8.32999C39.5281 8.20999 39.1501 8.08999 38.7661 7.96999C38.3821 7.84399 38.0041 7.69998 37.6321 7.53798C37.2601 7.37598 36.9301 7.16599 36.6421 6.90799C36.3541 6.64999 36.1201 6.32898 35.9401 5.94498C35.7661 5.55498 35.6791 5.07499 35.6791 4.50498C35.6791 4.04899 35.7661 3.60799 35.9401 3.18199C36.1201 2.75599 36.3781 2.37799 36.7141 2.04798C37.0561 1.71799 37.4731 1.45399 37.9651 1.25599C38.4631 1.05798 39.0331 0.958984 39.6751 0.958984C40.3951 0.958984 41.0491 1.07298 41.6371 1.30099C42.2311 1.52899 42.7531 1.85898 43.2031 2.29098L42.7801 3.11898Z" fill="#C2C2C2"/>
<path d="M50.9335 12.614C51.4675 12.614 51.9445 12.524 52.3645 12.344C52.7845 12.164 53.1385 11.912 53.4265 11.588C53.7205 11.264 53.9425 10.877 54.0925 10.427C54.2485 9.97699 54.3265 9.48199 54.3265 8.94199V1.10298H56.0635V8.94199C56.0635 9.68599 55.9435 10.376 55.7035 11.012C55.4695 11.648 55.1305 12.2 54.6865 12.668C54.2485 13.13 53.7115 13.493 53.0755 13.757C52.4395 14.021 51.7255 14.153 50.9335 14.153C50.1415 14.153 49.4275 14.021 48.7915 13.757C48.1555 13.493 47.6155 13.13 47.1715 12.668C46.7275 12.2 46.3855 11.648 46.1455 11.012C45.9115 10.376 45.7945 9.68599 45.7945 8.94199V1.10298H47.5315V8.93299C47.5315 9.47299 47.6065 9.96799 47.7565 10.418C47.9125 10.868 48.1345 11.255 48.4225 11.579C48.7165 11.903 49.0735 12.158 49.4935 12.344C49.9195 12.524 50.3995 12.614 50.9335 12.614Z" fill="#C2C2C2"/>
<path d="M65.7899 3.11898C65.7359 3.20899 65.6759 3.27799 65.6099 3.32598C65.5499 3.36799 65.4749 3.38899 65.3849 3.38899C65.2829 3.38899 65.1629 3.33799 65.0249 3.23598C64.8869 3.13398 64.7129 3.02298 64.5029 2.90299C64.2989 2.77698 64.0499 2.66298 63.7559 2.56099C63.4679 2.45898 63.1169 2.40798 62.7029 2.40798C62.3129 2.40798 61.9679 2.46198 61.6679 2.56998C61.3739 2.67199 61.1249 2.81299 60.9209 2.99299C60.7229 3.17298 60.5729 3.38598 60.4709 3.63198C60.3689 3.87198 60.3179 4.13298 60.3179 4.41498C60.3179 4.77499 60.4049 5.07499 60.5789 5.31499C60.7589 5.54899 60.9929 5.74998 61.2809 5.91798C61.5749 6.08598 61.9049 6.23298 62.2709 6.35898C62.6429 6.47898 63.0209 6.60499 63.4049 6.73699C63.7949 6.86899 64.1729 7.01899 64.5389 7.18699C64.9109 7.34899 65.2409 7.55599 65.5289 7.80799C65.8229 8.05999 66.0569 8.36899 66.2309 8.73499C66.4109 9.10099 66.5009 9.55098 66.5009 10.085C66.5009 10.649 66.4049 11.18 66.2129 11.678C66.0209 12.17 65.7389 12.599 65.3669 12.965C65.0009 13.331 64.5479 13.619 64.0079 13.829C63.4739 14.039 62.8649 14.144 62.1809 14.144C61.3409 14.144 60.5789 13.994 59.8949 13.694C59.2109 13.388 58.6259 12.977 58.1399 12.461L58.6439 11.633C58.6919 11.567 58.7489 11.513 58.8149 11.471C58.8869 11.423 58.9649 11.399 59.0489 11.399C59.1269 11.399 59.2139 11.432 59.3099 11.498C59.4119 11.558 59.5259 11.636 59.6519 11.732C59.7779 11.828 59.9219 11.933 60.0839 12.047C60.2459 12.161 60.4289 12.266 60.6329 12.362C60.8429 12.458 61.0799 12.539 61.3439 12.605C61.6079 12.665 61.9049 12.695 62.2349 12.695C62.6489 12.695 63.0179 12.638 63.3419 12.524C63.6659 12.41 63.9389 12.251 64.1609 12.047C64.3889 11.837 64.5629 11.588 64.6829 11.3C64.8029 11.012 64.8629 10.691 64.8629 10.337C64.8629 9.94699 64.7729 9.62898 64.5929 9.38299C64.4189 9.13099 64.1879 8.92099 63.8999 8.75299C63.6119 8.58499 63.2819 8.44399 62.9099 8.32999C62.5379 8.20999 62.1599 8.08999 61.7759 7.96999C61.3919 7.84399 61.0139 7.69998 60.6419 7.53798C60.2699 7.37598 59.9399 7.16599 59.6519 6.90799C59.3639 6.64999 59.1299 6.32898 58.9499 5.94498C58.7759 5.55498 58.6889 5.07499 58.6889 4.50498C58.6889 4.04899 58.7759 3.60799 58.9499 3.18199C59.1299 2.75599 59.3879 2.37799 59.7239 2.04798C60.0659 1.71799 60.4829 1.45399 60.9749 1.25599C61.4729 1.05798 62.0429 0.958984 62.6849 0.958984C63.4049 0.958984 64.0589 1.07298 64.6469 1.30099C65.2409 1.52899 65.7629 1.85898 66.2129 2.29098L65.7899 3.11898Z" fill="#C2C2C2"/>
</svg>
